<?xml version="1.0" standalone="no"?>
<!DOCTYPE svg PUBLIC "-//W3C//DTD SVG 20010904//EN"
 "http://www.w3.org/TR/2001/REC-SVG-20010904/DTD/svg10.dtd">
<svg version="1.0" xmlns="http://www.w3.org/2000/svg"
 width="700.000000pt" height="700.000000pt" viewBox="0 0 700.000000 700.000000"
 preserveAspectRatio="xMidYMid meet">
<metadata>
Created by potrace 1.11, written by Peter Selinger 2001-2013
</metadata>
<g transform="translate(0.000000,700.000000) scale(0.100000,-0.100000)"
fill="#000000" stroke="none">
<path d="M3167 6968 c-10 -18 -27 -49 -38 -68 -12 -19 -71 -123 -132 -230 -60
-107 -219 -386 -352 -620 -134 -234 -255 -447 -271 -475 -15 -27 -76 -135
-136 -239 -59 -104 -108 -191 -108 -193 0 -3 -8 -17 -18 -31 -11 -15 -32 -52
-49 -82 -17 -30 -75 -134 -130 -230 -55 -96 -111 -195 -125 -220 -14 -25 -81
-142 -148 -260 -68 -118 -131 -228 -140 -245 -9 -16 -63 -111 -120 -210 -56
-99 -114 -200 -128 -225 -14 -25 -62 -110 -108 -190 -45 -80 -86 -152 -89
-162 -6 -14 6 -16 127 -13 73 2 266 6 428 10 162 4 354 8 425 10 554 14 755
16 755 6 0 -6 -15 -39 -34 -73 -18 -35 -66 -126 -106 -203 -170 -328 -205
-394 -240 -460 -20 -38 -74 -142 -120 -230 -45 -88 -104 -200 -130 -250 -26
-49 -80 -153 -120 -230 -40 -77 -94 -180 -120 -230 -26 -49 -82 -157 -125
-240 -43 -82 -99 -190 -125 -240 -26 -49 -82 -157 -125 -240 -42 -82 -99 -190
-125 -240 -58 -109 -150 -286 -260 -500 l-83 -160 49 45 c27 24 58 54 70 65
23 22 242 227 289 269 17 16 84 79 150 141 66 62 136 127 155 145 19 18 91 85
159 149 68 64 139 130 156 146 102 95 283 264 310 290 27 25 107 100 300 280
18 17 88 82 155 145 67 63 137 129 155 145 17 17 85 80 150 140 64 61 136 127
159 148 22 21 96 91 164 155 68 64 131 123 141 131 10 9 78 72 151 141 73 69
141 132 150 140 10 9 80 74 156 145 247 233 279 262 314 295 19 18 95 89 169
159 73 69 143 134 154 144 23 20 230 213 347 323 41 40 89 85 106 100 40 37
224 208 290 271 28 26 106 99 172 161 66 62 129 121 141 131 11 10 21 20 21
22 0 2 -428 4 -950 3 -673 0 -949 3 -947 11 4 8 697 879 765 960 9 11 60 74
112 140 52 66 97 122 100 125 3 3 30 36 60 75 30 38 62 79 72 90 9 11 45 56
79 100 35 44 66 82 69 85 3 3 39 48 80 100 41 52 77 97 80 100 3 3 48 59 100
125 52 66 105 131 116 145 16 19 341 426 397 498 7 9 -271 12 -1385 12 l-1394
0 -17 -32z"/>
<path d="M2630 6889 c-312 -79 -601 -198 -885 -362 -106 -61 -291 -181 -305
-197 -3 -3 -23 -19 -45 -35 -448 -329 -862 -847 -1089 -1365 -16 -36 -36 -83
-46 -105 -92 -209 -189 -570 -226 -840 -3 -22 -7 -53 -9 -70 -27 -184 -26
-635 1 -835 20 -148 23 -166 39 -250 9 -41 17 -84 19 -95 12 -59 51 -203 82
-300 177 -548 478 -1034 891 -1437 117 -115 157 -149 165 -140 6 6 145 270
215 409 l27 53 -87 87 c-98 101 -116 120 -198 223 -33 41 -68 84 -77 95 -8 11
-50 72 -91 135 -324 495 -493 1056 -491 1625 1 204 19 420 45 545 3 14 10 48
15 75 6 28 12 59 14 70 11 53 69 246 102 337 45 127 128 311 189 417 25 44 45
82 45 84 0 12 152 233 225 326 90 116 321 356 420 437 33 27 62 51 65 55 16
18 202 148 305 211 125 77 319 175 443 224 l73 29 86 150 c47 83 97 170 111
195 14 25 51 90 82 145 87 153 84 144 58 142 -13 -1 -88 -18 -168 -38z"/>
<path d="M5542 6011 l-159 -199 73 -62 c83 -71 249 -239 314 -320 25 -30 47
-57 50 -60 11 -10 97 -125 141 -190 116 -168 228 -379 307 -580 41 -103 99
-273 108 -315 1 -5 10 -39 19 -75 9 -36 19 -76 21 -90 2 -14 9 -47 15 -75 5
-27 13 -72 16 -100 3 -27 7 -53 8 -56 2 -3 7 -37 10 -75 3 -38 8 -89 10 -114
5 -57 5 -365 0 -405 -2 -16 -6 -61 -9 -100 -3 -38 -8 -79 -10 -90 -2 -11 -7
-42 -10 -68 -4 -27 -9 -59 -12 -70 -2 -12 -7 -35 -9 -52 -3 -16 -8 -37 -10
-45 -2 -8 -7 -29 -10 -46 -12 -72 -80 -288 -132 -419 -123 -311 -267 -552
-503 -840 -13 -16 -92 -97 -175 -180 -301 -300 -611 -504 -1011 -663 -123 -49
-336 -114 -449 -137 -70 -14 -202 -37 -230 -40 -16 -2 -52 -6 -80 -9 -86 -10
-201 -16 -297 -17 -92 -1 -348 11 -358 16 -3 2 -37 6 -75 10 -39 4 -73 9 -77
11 -4 3 -26 7 -50 10 -115 15 -363 84 -532 149 l-119 45 -56 -52 c-263 -246
-346 -326 -341 -330 6 -5 226 -106 255 -118 11 -4 38 -15 60 -24 185 -74 533
-168 705 -190 25 -3 56 -8 70 -11 195 -36 706 -41 920 -9 144 21 295 48 345
61 33 8 67 16 75 18 109 22 388 117 550 188 119 51 305 146 352 178 14 11 29
19 33 19 13 0 268 174 367 251 144 112 299 255 423 390 101 110 122 136 205
244 332 435 546 913 654 1456 14 70 28 155 32 190 3 35 8 67 10 70 25 43 24
689 -1 829 -2 14 -7 45 -10 70 -75 556 -309 1128 -643 1577 -117 156 -154 201
-251 304 -130 139 -344 339 -363 339 -4 0 -78 -90 -166 -199z"/>
</g>
</svg>
