<?xml version="1.0" encoding="UTF-8" standalone="no"?>
<svg
   xmlns:dc="http://purl.org/dc/elements/1.1/"
   xmlns:cc="http://creativecommons.org/ns#"
   xmlns:rdf="http://www.w3.org/1999/02/22-rdf-syntax-ns#"
   xmlns:svg="http://www.w3.org/2000/svg"
   xmlns="http://www.w3.org/2000/svg"
   xmlns:sodipodi="http://sodipodi.sourceforge.net/DTD/sodipodi-0.dtd"
   xmlns:inkscape="http://www.inkscape.org/namespaces/inkscape"
   version="1.1"
   x="0px"
   y="0px"
   viewBox="0 0 78.36438 96.055191"
   xml:space="preserve"
   id="svg26"
   sodipodi:docname="noun_fairy_1005193.svg"
   width="78.36438"
   height="96.055191"
   inkscape:version="0.92.2 5c3e80d, 2017-08-06"><metadata
     id="metadata32"><rdf:RDF><cc:Work
         rdf:about=""><dc:format>image/svg+xml</dc:format><dc:type
           rdf:resource="http://purl.org/dc/dcmitype/StillImage" /><dc:title></dc:title></cc:Work></rdf:RDF></metadata><defs
     id="defs30" /><sodipodi:namedview
     pagecolor="#ffffff"
     bordercolor="#666666"
     borderopacity="1"
     objecttolerance="10"
     gridtolerance="10"
     guidetolerance="10"
     inkscape:pageopacity="0"
     inkscape:pageshadow="2"
     inkscape:window-width="748"
     inkscape:window-height="480"
     id="namedview28"
     showgrid="false"
     fit-margin-top="0"
     fit-margin-left="0"
     fit-margin-right="0"
     fit-margin-bottom="0"
     inkscape:zoom="1.888"
     inkscape:cx="39.136034"
     inkscape:cy="35.555193"
     inkscape:window-x="0"
     inkscape:window-y="0"
     inkscape:window-maximized="0"
     inkscape:current-layer="svg26" /><g
     id="g20"
     transform="translate(-10.863966,-2)"><path
       d="m 15.2,31.6 c 1,-0.7 2.3,-0.8 3.3,-0.2 0.8,0.4 1.9,1.2 2.9,2.7 0.3,0.4 0.6,0.9 0.9,1.3 0.4,-0.1 1,-0.3 1.6,-0.1 0.9,0.4 2.3,2.1 1,4.3 l -0.7,0.9 c 0.3,0.8 0.5,1.5 1,2 1.3,1.4 3.1,0.2 3.1,0.2 0,0 -2.6,-0.2 0,-3 0.9,-1 1.5,-2.1 1.8,-3.3 0.4,-2.3 -0.2,-4.8 -1.5,-6.8 0.9,-0.4 1.7,-1.1 2.1,-2.1 0.8,-2 -0.1,-4.3 -2.1,-5.2 -2,-0.8 -4.3,0.1 -5.2,2.1 -0.2,0.5 -0.3,1 -0.3,1.4 -2.9,-0.6 -6,0.3 -8,1.8 0,0 -3.7,0.3 -4.2,2.7 -0.3,1.5 1.3,2.5 3.8,2.8 -0.1,0.1 -0.7,-0.7 0.5,-1.5 z"
       id="path2"
       inkscape:connector-curvature="0" /><path
       d="m 55.8,77.4 c 0,0 -2.8,-10.1 -6.7,-12.5 0,0 6.2,-0.1 12.9,-2.5 0,0 -7,-3.6 -10.4,-3.9 0,0 6,-0.3 9.4,-3.8 0,0 -10.1,-1.7 -16.1,1.7 -1.5,0.9 -2.7,1.1 -3.7,1 -1,0.5 -4.2,1.4 -11.6,-2.8 -0.9,-0.5 -3.8,0.1 -5.4,1.4 0.5,1.7 2,3.8 4,4.5 1.3,0.5 2.6,1 3.7,1.8 2,1.4 4.7,3.4 4.8,4.3 0,0 0.5,13 1,17.7 0,0 7.2,-8.1 6.8,-12.1 0,0 3.9,4.3 11.3,5.2 z"
       id="path4"
       inkscape:connector-curvature="0" /><path
       d="m 29.9,54 c 1.6,0.7 7.2,3.8 10.2,3.1 C 38.1,56 37.4,53.2 36.8,52.2 36.7,52 36.4,51.5 36.2,51 L 49,52.2 c 2.4,0.6 10.5,1.3 10.5,1.3 0,0 4.5,1.1 6.2,1.5 1.7,0.4 1.3,-0.9 0.9,-1.5 -0.4,-0.6 1.7,-1.7 3,-2.8 1.3,-1.1 -1.9,-1.3 -4.1,-0.2 -2.1,1.1 -4.1,0.6 -4.1,0.6 0,0 -9.4,-3.2 -11.6,-3 -2.1,0.2 -14,-2.6 -16.1,-3.2 C 32,44.4 29.9,44.5 29,44.6 25.3,44.9 23.8,42 23.8,42 c -0.2,-0.6 -0.4,-1.2 -0.6,-1.9 2.2,-1.3 1.1,-4 -0.1,-4.1 -0.8,-0.1 -1.1,0.4 -1.2,0.8 -1.1,-2.5 -2.6,-4.7 -4.7,-5 0,0 -1.2,-0.1 -1.5,0.2 -0.2,0.2 -0.6,0.1 -0.4,1.6 V 34 c 0,0 -1.3,0 -2.4,-0.3 0,0 -0.5,1.5 -0.1,2.7 0.4,1.2 1.6,1.8 1.3,3.2 -0.3,1.4 -1.3,1.3 -1,2 0.3,0.7 1.3,0.9 1.3,0.9 0,0 -0.2,0.8 0,1.1 L 15,44 c 0,0 -0.1,0.7 0.4,0.9 0.5,0.2 0.6,1.7 1.6,1.7 1,0 2.4,-0.4 3.4,-1 0,0 0.3,0.2 0.8,0.6 0.4,0.5 1,1.5 1.4,3.3 0,0 1.1,3.4 1.5,5.6 1.2,-0.8 3.8,-2 5.8,-1.1 z"
       id="path6"
       inkscape:connector-curvature="0" /><path
       d="m 84.9,92.8 c -2.4,-1.7 -1.5,-5.4 -2.8,-6 -1.3,-0.6 -1.9,1.3 -5.4,-0.6 -3.4,-1.9 -10.6,-7.7 -14.4,-9.1 -2.8,-1 -6.9,-3.9 -6.9,-3.9 0,0 1.9,3.6 1.8,5.5 0,0 -5.5,-1 -6.3,-1.4 l 4.7,2.8 c 0,0 1,0.8 2.5,1.4 1.5,0.6 19.8,9.9 19.8,9.9 0,0 4.3,4.3 6.4,4.5 2.1,0.2 2.6,3 3,1.9 0.4,-1.1 0,-3.3 -2.4,-5 z"
       id="path8"
       inkscape:connector-curvature="0" /><path
       d="m 89,59.5 c -0.8,-0.6 -3.2,1.3 -4.7,1.3 -1.5,0 -3.6,-1.2 -4.7,-0.2 -2,1.7 1.3,2.4 -4.7,4.5 -6,2.1 -10.7,6.4 -12.2,6.4 -1.5,0 -9.2,-4.7 -9.2,-4.7 l -1.7,-1 c 1.4,1.4 3.2,5.6 3.2,5.6 1.7,1.5 6,3.8 7,4.2 1.1,0.4 3.9,2 3.9,2 0,0 6,-5.4 9.7,-8.8 3.6,-3.4 6,-2.7 8.4,-4.6 1.7,-1.4 6.3,-3.7 5,-4.7 z"
       id="path10"
       inkscape:connector-curvature="0" /><path
       d="m 33.2,44 3.2,0.7 c 4.3,-8.8 19.8,-15 19.8,-15 C 59.6,14.2 44.5,2 44.5,2 44.5,2 39,4.3 35.1,16.2 31.1,28.2 33.2,44 33.2,44 Z"
       id="path12"
       inkscape:connector-curvature="0" /><path
       d="m 37.6,44.9 c 1.3,0.7 11.4,2.3 11.4,2.3 4,-0.3 9.6,2.2 9.6,2.2 5.2,-2.2 5.2,-9.1 5.2,-9.1 C 63.7,31.6 56.1,30.6 56.1,30.6 39.9,38 37.6,44.9 37.6,44.9 Z"
       id="path14"
       inkscape:connector-curvature="0" /><path
       d="m 37.5,51.8 c 0,0 0.7,1.1 0.9,1.8 0.2,0.7 0.8,1.3 0.8,1.3 0,0 8.1,-0.1 11.2,-1.4 0,0 -1.9,-0.4 -2.1,-0.4 C 48.1,53 38.2,52.4 37.5,51.8 Z"
       id="path16"
       inkscape:connector-curvature="0" /><path
       d="m 30.6,22.5 c 3.4,4.3 -0.7,7.4 -0.7,7.4 1.9,3.4 1.2,7.2 0.8,8.2 -0.4,1 -1,1.5 -1,1.5 0.3,0.6 0.6,3.9 0.6,3.9 l 0.1,0.4 h 2.2 c 0,0 -1.3,-6.7 -0.5,-14.9 0.8,-8.2 2.4,-13.5 2.4,-13.5 L 34.4,15.1 C 34,12.7 29.5,7.5 29.5,7.5 c -4,7.2 -2.6,13.8 -2.6,13.8 2.1,-0.5 3.7,1.2 3.7,1.2 z"
       id="path18"
       inkscape:connector-curvature="0" /></g></svg>