<?xml version="1.0" encoding="UTF-8" standalone="no"?>
<svg
   xmlns:dc="http://purl.org/dc/elements/1.1/"
   xmlns:cc="http://creativecommons.org/ns#"
   xmlns:rdf="http://www.w3.org/1999/02/22-rdf-syntax-ns#"
   xmlns:svg="http://www.w3.org/2000/svg"
   xmlns="http://www.w3.org/2000/svg"
   xmlns:sodipodi="http://sodipodi.sourceforge.net/DTD/sodipodi-0.dtd"
   xmlns:inkscape="http://www.inkscape.org/namespaces/inkscape"
   xml:space="preserve"
   version="1.1"
   style="clip-rule:evenodd;fill-rule:evenodd;image-rendering:optimizeQuality;shape-rendering:geometricPrecision;text-rendering:geometricPrecision"
   viewBox="0 0 260 260"
   x="0px"
   y="0px"
   id="svg14"
   sodipodi:docname="lightning.svg"
   width="260"
   height="260"
   inkscape:version="0.92.2 5c3e80d, 2017-08-06"><metadata
     id="metadata18"><rdf:RDF><cc:Work
         rdf:about=""><dc:format>image/svg+xml</dc:format><dc:type
           rdf:resource="http://purl.org/dc/dcmitype/StillImage" /><dc:title></dc:title></cc:Work></rdf:RDF></metadata><sodipodi:namedview
     pagecolor="#ffffff"
     bordercolor="#666666"
     borderopacity="1"
     objecttolerance="10"
     gridtolerance="10"
     guidetolerance="10"
     inkscape:pageopacity="0"
     inkscape:pageshadow="2"
     inkscape:window-width="1056"
     inkscape:window-height="729"
     id="namedview16"
     showgrid="false"
     fit-margin-top="0"
     fit-margin-left="0"
     fit-margin-right="0"
     fit-margin-bottom="0"
     inkscape:zoom="1.403335"
     inkscape:cx="130"
     inkscape:cy="130"
     inkscape:window-x="0"
     inkscape:window-y="0"
     inkscape:window-maximized="0"
     inkscape:current-layer="svg14" /><defs
     id="defs4"><style
       type="text/css"
       id="style2">
   
    .fil0 {fill:black}
   
  </style></defs><g
     id="g8"
     transform="matrix(0.01748252,0,0,0.01748252,0,-3.0517578e-5)"
     style="fill:#fd1172;fill-opacity:1"><path
       class="fil0"
       d="m 6768,0 h 5925 L 8328,5452 h 4068 L 2323,14872 5991,7834 2258,7921 Z m 5356,1664 c 1677,1364 2748,3443 2748,5772 0,4107 -3329,7436 -7436,7436 -1215,0 -2362,-292 -3376,-809 l 865,-808 c 770,333 1619,518 2511,518 3500,0 6337,-2837 6337,-6337 0,-1892 -868,-3717 -2336,-4914 z M 2588,13074 C 1003,11710 0,9690 0,7436 0,3819 2582,806 6003,138 l -771,1356 c -2413,895 -4133,3218 -4133,5942 0,1828 775,3475 2013,4632 z"
       id="path6"
       inkscape:connector-curvature="0"
       style="fill:#fd1172;fill-opacity:1" /></g></svg>