<?xml version="1.0" encoding="UTF-8" standalone="no"?>
<svg
   xmlns:dc="http://purl.org/dc/elements/1.1/"
   xmlns:cc="http://creativecommons.org/ns#"
   xmlns:rdf="http://www.w3.org/1999/02/22-rdf-syntax-ns#"
   xmlns:svg="http://www.w3.org/2000/svg"
   xmlns="http://www.w3.org/2000/svg"
   xmlns:sodipodi="http://sodipodi.sourceforge.net/DTD/sodipodi-0.dtd"
   xmlns:inkscape="http://www.inkscape.org/namespaces/inkscape"
   version="1.1"
   x="0px"
   y="0px"
   viewBox="0 0 14.554673 17"
   enable-background="new 0 0 100 100"
   xml:space="preserve"
   id="svg12"
   sodipodi:docname="menu-open-icon.svg"
   width="14.554673"
   height="17"
   inkscape:version="0.92.2 5c3e80d, 2017-08-06"><metadata
     id="metadata18"><rdf:RDF><cc:Work
         rdf:about=""><dc:format>image/svg+xml</dc:format><dc:type
           rdf:resource="http://purl.org/dc/dcmitype/StillImage" /><dc:title /></cc:Work></rdf:RDF></metadata><defs
     id="defs16" /><sodipodi:namedview
     pagecolor="#ffffff"
     bordercolor="#666666"
     borderopacity="1"
     objecttolerance="10"
     gridtolerance="10"
     guidetolerance="10"
     inkscape:pageopacity="0"
     inkscape:pageshadow="2"
     inkscape:window-width="1440"
     inkscape:window-height="856"
     id="namedview14"
     showgrid="false"
     inkscape:zoom="37.823529"
     inkscape:cx="8.7578966"
     inkscape:cy="8.5000001"
     inkscape:window-x="0"
     inkscape:window-y="0"
     inkscape:window-maximized="0"
     inkscape:current-layer="g6"
     fit-margin-top="0"
     fit-margin-left="0"
     fit-margin-right="0"
     fit-margin-bottom="0" /><g
     id="g6"
     transform="matrix(0.29503961,0,0,0.29503961,-6.3081294,-7.4882875)"><g
       id="g849"
       transform="matrix(0.85615724,0,0,0.85615724,3.0754473,11.938949)"
       style="fill:#455057;fill-opacity:1"
       inkscape:export-xdpi="300"
       inkscape:export-ydpi="300"><path
         inkscape:connector-curvature="0"
         id="path2"
         d="m 45.3,80.8 h -7.6 c -1.2,0 -2.2,1 -2.2,2.2 h 12 c 0,-1.2 -1,-2.2 -2.2,-2.2 z"
         style="fill:#455057;fill-opacity:1" /><path
         sodipodi:nodetypes="ccsccssssccscccsccccscccccccccccccccscccsccccccsccccccccccccc"
         inkscape:connector-curvature="0"
         id="path4"
         d="M 78.2,28 69.3,20.9 C 68.9,20.6 68.4,20.4 67.9,20.4 H 67.7 L 45.2,22 v -4.1 c 0,-1.2 -1,-2.2 -2.2,-2.2 h -3 c -1.2,0 -2.2,1 -2.2,2.2 v 4.6 l -12.1,0.8 c -0.6,0 -1.1,0.3 -1.5,0.7 -0.4,0.4 -0.6,1 -0.5,1.6 L 24.8,41 c 0,0.6 0.3,1.1 0.7,1.5 0.4,0.3 0.9,0.5 1.4,0.5 h 0.2 l 10.7,-0.8 v 5.1 l -8.4,-0.7 h -0.2 c -0.5,0 -1,0.2 -1.4,0.5 l -5.6,4.4 c -0.5,0.4 -0.8,0.9 -0.8,1.5 -0.1,0.6 0.2,1.2 0.6,1.7 l 4.8,5.2 c 0.4,0.4 0.9,0.7 1.4,0.7 l 9.6,0.8 V 79.6 H 40 v -18 l 3,0.2 v 17.8 h 2.2 V 62.1 l 7.7,0.6 h 0.2 c 0.5,0 1,-0.2 1.4,-0.5 0.4,-0.4 0.7,-0.9 0.8,-1.5 l 0.8,-9.6 c 0,-0.6 -0.1,-1.2 -0.5,-1.6 -0.4,-0.4 -0.9,-0.7 -1.5,-0.8 L 45.2,48 v -6.2 l 24,-1.7 c 0.6,0 1.1,-0.3 1.4,-0.7 l 7.8,-8.3 c 0.4,-0.4 0.6,-1 0.6,-1.7 0,-0.5 -0.3,-1 -0.8,-1.4 z M 40,17.9 h 3 v 4.3 l -3,0.2 z m 0,31.9 c -12.412921,22.133332 -6.206461,11.066666 0,0 z m 3,-1.9 -3,-0.2 v -5.4 l 3,-0.2 z"
         style="fill:#455057;fill-opacity:1" /></g></g><text
     x="-21.380619"
     y="49"
     font-size="5px"
     font-weight="bold"
     id="text8"
     style="font-weight:bold;font-size:5px;font-family:'Helvetica Neue', Helvetica, Arial-Unicode, Arial, Sans-serif;fill:#000000">Created by Casey Fluster</text>
<text
     x="-21.380619"
     y="54"
     font-size="5px"
     font-weight="bold"
     id="text10"
     style="font-weight:bold;font-size:5px;font-family:'Helvetica Neue', Helvetica, Arial-Unicode, Arial, Sans-serif;fill:#000000">from the Noun Project</text>
</svg>