<svg xmlns="http://www.w3.org/2000/svg" xmlns:xlink="http://www.w3.org/1999/xlink" version="1.1" x="0px" y="0px" viewBox="0 0 32 40" enable-background="new 0 0 32 32" xml:space="preserve"><path fill-rule="evenodd" clip-rule="evenodd" fill="#000000" d="M31.418,8.997l-8.415,8.416c-0.775,0.774-2.031,0.774-2.806,0  l-0.695-0.696l-2.786,2.785l0.696,0.695c0.775,0.775,0.775,2.031,0,2.806l-8.416,8.416c-0.774,0.775-2.031,0.775-2.806,0  l-5.61-5.609c-0.774-0.775-0.774-2.03,0-2.807l8.416-8.415c0.775-0.775,2.03-0.775,2.806,0l0.726,0.726l2.784-2.785l-0.726-0.726  c-0.775-0.775-0.775-2.031,0-2.806l8.416-8.416c0.775-0.774,2.03-0.774,2.807,0l5.608,5.61C32.194,6.966,32.194,8.222,31.418,8.997  L31.418,8.997z M11.134,16.652c-0.392-0.39-1.025-0.39-1.417,0l-7.074,7.076c-0.39,0.39-0.39,1.022,0,1.414l4.244,4.244  c0.392,0.391,1.025,0.391,1.415,0l7.075-7.073c0.39-0.392,0.39-1.025,0-1.417l-0.714-0.712l-2.227,2.227  c-0.788,0.787-2.062,0.787-2.848,0c-0.788-0.786-0.788-2.063,0-2.85l2.227-2.227L11.134,16.652L11.134,16.652z M10.301,20.272  c-0.395,0.395-0.395,1.032,0,1.427c0.393,0.392,1.032,0.392,1.424,0l9.971-9.973c0.394-0.392,0.394-1.03,0-1.424  c-0.393-0.393-1.03-0.393-1.425,0L10.301,20.272L10.301,20.272z M29.385,6.889l-4.244-4.244c-0.392-0.39-1.024-0.39-1.416,0  l-7.074,7.076c-0.39,0.39-0.39,1.022,0,1.415l0.682,0.682L19.56,9.59c0.787-0.787,2.062-0.787,2.848,0  c0.787,0.787,0.787,2.062,0,2.848l-2.225,2.227l0.712,0.714c0.392,0.39,1.025,0.39,1.415,0l7.075-7.073  C29.775,7.914,29.775,7.281,29.385,6.889L29.385,6.889z"/><text x="0" y="47" fill="#000000" font-size="5px" font-weight="bold" font-family="'Helvetica Neue', Helvetica, Arial-Unicode, Arial, Sans-serif">Created by Muhamad Ulum</text><text x="0" y="52" fill="#000000" font-size="5px" font-weight="bold" font-family="'Helvetica Neue', Helvetica, Arial-Unicode, Arial, Sans-serif">from the Noun Project</text></svg>