<?xml version="1.0" standalone="no"?>
<!DOCTYPE svg PUBLIC "-//W3C//DTD SVG 20010904//EN"
 "http://www.w3.org/TR/2001/REC-SVG-20010904/DTD/svg10.dtd">
<svg version="1.0" xmlns="http://www.w3.org/2000/svg"
 width="700.000000pt" height="700.000000pt" viewBox="0 0 700.000000 700.000000"
 preserveAspectRatio="xMidYMid meet">
<metadata>
Created by potrace 1.11, written by Peter Selinger 2001-2013
</metadata>
<g transform="translate(0.000000,700.000000) scale(0.100000,-0.100000)"
fill="#000000" stroke="none">
<path d="M3105 6893 c-33 -59 -74 -132 -91 -163 -48 -85 -235 -411 -255 -445
-10 -16 -27 -46 -37 -66 -11 -20 -122 -215 -247 -435 -125 -219 -320 -561
-432 -759 -113 -198 -222 -389 -243 -425 -46 -78 -320 -561 -346 -610 -11 -19
-27 -46 -35 -60 -13 -21 -60 -102 -218 -382 -55 -97 -66 -118 -107 -189 -24
-42 -44 -79 -44 -82 0 -3 69 -4 153 -2 83 2 276 7 427 10 151 3 343 8 425 10
83 2 280 7 440 10 159 4 293 9 297 11 14 9 9 -5 -41 -98 -26 -51 -85 -165
-131 -253 -77 -149 -107 -207 -245 -470 -29 -55 -85 -163 -125 -240 -116 -223
-162 -309 -173 -323 -5 -6 -6 -12 -2 -12 4 0 3 -6 -3 -12 -6 -7 -38 -67 -72
-133 -34 -66 -88 -169 -120 -230 -31 -60 -87 -166 -122 -235 -36 -69 -94 -179
-128 -245 -35 -66 -88 -167 -118 -225 -50 -98 -98 -190 -242 -465 -207 -396
-196 -373 -160 -340 34 30 147 135 226 210 23 22 67 63 96 90 30 28 112 104
183 170 70 66 144 135 164 153 20 19 90 84 156 146 66 62 132 124 146 137 15
13 82 76 150 140 68 64 140 131 159 149 19 18 64 60 100 94 72 67 314 294 371
347 20 19 65 61 100 93 71 66 307 287 349 326 41 39 279 262 315 295 17 17 85
80 150 140 64 61 136 127 159 148 90 85 347 325 516 484 36 33 81 75 100 93
19 18 89 83 155 145 66 62 136 127 155 145 19 17 60 55 90 84 30 28 96 90 145
136 50 46 119 111 155 145 36 33 101 94 145 135 44 41 141 132 215 202 74 69
150 140 168 156 18 17 29 32 25 34 -5 2 -432 3 -950 3 -519 -1 -943 1 -943 5
0 3 18 28 41 55 48 59 48 60 119 150 30 39 60 76 68 83 7 8 25 30 40 50 15 20
35 46 44 57 9 11 220 274 469 585 248 311 464 581 480 600 16 19 117 145 225
280 107 135 203 254 212 265 46 55 329 412 336 423 6 9 -274 12 -1386 12
l-1393 0 -60 -107z"/>
</g>
</svg>
